#!OML:ASF E:\motion texture\Top Level 1\Subject 1\Session 1\male.ASF
:FULLY-SPECIFIED
:DEGREES
379
root -4.28477 17.9109 8.52184 197.623 -81.3053 -190.693
lowerback 0.569059 -0.858046 -3.55672
upperback -0.416998 -1.17017 2.08665
thorax -0.632885 -0.567389 4.157
lowerneck -17.0146 3.23798 -0.283858
upperneck 16.7102 3.93732 2.53494
head 7.90885 2.08528 1.34256
rclavicle -8.94531e-015 -1.35174e-014
rhumerus -53.2195 -22.9407 -58.2357
rradius 19.9923
rwrist 25.1035
rhand -6.14646 -28.7331
rfingers 7.12502
rthumb 19.6916 -57.7557
lclavicle -8.94531e-015 -1.35174e-014
lhumerus -23.9642 13.6601 71.6668
lradius 31.5017
lwrist -21.4976
lhand -13.2445 25.5863
lfingers 7.12502
lthumb 12.8575 55.1703
rfemur -35.0032 -4.87805 17.3625
rtibia 43.2256
rfoot -3.5801 -17.4044
rtoes 8.04104
lfemur -5.47306 -5.58265 -23.019
ltibia 16.059
lfoot -12.7035 1.10645
ltoes -4.85342
380
root -4.42649 17.9015 8.50167 198.164 -81.3642 -191.191
lowerback 0.553728 -0.902876 -3.62707
upperback -0.432808 -1.2303 2.12811
thorax -0.632316 -0.596974 4.24018
lowerneck -16.9491 3.25437 -0.274912
upperneck 16.7655 3.96886 2.47055
head 7.91688 2.09348 1.32295
rclavicle -4.37326e-015 -1.43125e-014
rhumerus -52.06 -22.388 -59.59
rradius 20.6947
rwrist 23.9577
rhand -6.81925 -28.8121
rfingers 7.12502
rthumb 19.0447 -57.8997
lclavicle -4.37326e-015 -1.43125e-014
lhumerus -23.529 12.9467 71.9377
lradius 31.9763
lwrist -21.1306
lhand -13.3129 25.5481
lfingers 7.12502
lthumb 12.7916 55.1362
rfemur -35.213 -4.85021 17.2899
rtibia 41.4197
rfoot -3.79497 -17.343
rtoes 7.97158
lfemur -4.96929 -5.53753 -23.1195
ltibia 16.0053
lfoot -12.9467 0.995712
ltoes -5.28473
381
root -4.56889 17.8915 8.48079 198.67 -81.4235 -191.649
lowerback 0.534184 -0.941653 -3.68633
upperback -0.451868 -1.28217 2.16902
thorax -0.63359 -0.622374 4.31642
lowerneck -16.8863 3.2674 -0.265973
upperneck 16.8212 3.99594 2.40559
head 7.92561 2.0995 1.30269
rclavicle 9.93923e-015 -1.51076e-014
rhumerus -50.9145 -21.7908 -60.9255
rradius 21.4375
rwrist 22.8344
rhand -7.47696 -28.8702
rfingers 7.12502
rthumb 18.4121 -58.0188
lclavicle 9.93923e-015 -1.51076e-014
lhumerus -23.1216 12.235 72.2091
lradius 32.4725
lwrist -20.7715
lhand -13.3699 25.5089
lfingers 7.12502
lthumb 12.7367 55.1005
rfemur -35.3812 -4.79836 17.2177
rtibia 39.6152
rfoot -3.93622 -17.2376
rtoes 7.87488
lfemur -4.48391 -5.49927 -23.2069
ltibia 15.9831
lfoot -13.1815 0.886074
ltoes -5.75432
382
root -4.71216 17.881 8.45924 199.133 -81.482 -192.064
lowerback 0.511291 -0.974484 -3.73376
upperback -0.473667 -1.32593 2.20941
thorax -0.636738 -0.643681 4.38533
lowerneck -16.83 3.27837 -0.259723
upperneck 16.8814 4.01992 2.34518
head 7.93691 2.10432 1.28424
rclavicle 1.76918e-014 1.03368e-014
rhumerus -49.7891 -21.1484 -62.2355
rradius 22.2222
rwrist 21.7347
rhand -8.1108 -28.9161
rfingers 7.12502
rthumb 17.8022 -58.1212
lclavicle 1.76918e-014 1.03368e-014
lhumerus -22.7472 11.5302 72.4804
lradius 32.9898
lwrist -20.4251
lhand -13.4169 25.4617
lfingers 7.12502
lthumb 12.6913 55.056
rfemur -35.5076 -4.72102 17.1456
rtibia 37.8277
rfoot -4.00951 -17.0925
rtoes 7.75474
lfemur -4.0143 -5.46781 -23.2824
ltibia 15.9942
lfoot -13.4069 0.779498
ltoes -6.25536
383
root -4.85632 17.8703 8.437 199.54 -81.5415 -192.424
lowerback 0.485787 -1.00133 -3.76663
upperback -0.498767 -1.36153 2.24914
thorax -0.642887 -0.660849 4.44527
lowerneck -16.7773 3.28681 -0.253331
upperneck 16.9441 4.04005 2.28652
head 7.94971 2.10746 1.26601
rclavicle 1.36167e-014 2.38542e-015
rhumerus -48.691 -20.473 -63.5055
rradius 23.0444
rwrist 20.6715
rhand -8.7158 -28.945
rfingers 7.12502
rthumb 17.22 -58.202
lclavicle 1.36167e-014 2.38542e-015
lhumerus -22.4055 10.8329 72.752
lradius 33.5259
lwrist -20.0904
lhand -13.4567 25.4127
lfingers 7.12502
lthumb 12.653 55.0095
rfemur -35.5961 -4.61998 17.0765
rtibia 36.073
rfoot -4.01439 -16.9208
rtoes 7.62508
lfemur -3.5635 -5.44273 -23.3431
ltibia 16.0424
lfoot -13.619 0.674165
ltoes -6.79376
384
root -5.00145 17.8595 8.41403 199.883 -81.6012 -192.717
lowerback 0.455628 -1.02273 -3.7845
upperback -0.525218 -1.38966 2.28907
thorax -0.648861 -0.674336 4.49676
lowerneck -16.7314 3.29385 -0.249055
upperneck 17.0079 4.05828 2.23058
head 7.96399 2.10986 1.24897
rclavicle 3.95581e-014 7.95139e-016
rhumerus -47.6196 -19.7677 -64.7313
rradius 23.9022
rwrist 19.6488
rhand -9.29455 -28.9504
rfingers 7.12502
rthumb 16.6629 -58.2551
lclavicle 3.95581e-014 7.95139e-016
lhumerus -22.0957 10.1508 73.0246
lradius 34.0783
lwrist -19.7715
lhand -13.491 25.3573
lfingers 7.12502
lthumb 12.6198 54.9561
rfemur -35.6496 -4.4926 17.0112
rtibia 34.3655
rfoot -3.96316 -16.7342
rtoes 7.49619
lfemur -3.13311 -5.42444 -23.388
ltibia 16.1311
lfoot -13.8174 0.569723
ltoes -7.36549
